<svg width="25" height="24" viewBox="0 0 25 24" fill="none" xmlns="http://www.w3.org/2000/svg">
<path d="M16.9316 6.96937L15.6838 4.99781C15.4208 4.69125 15.0603 4.5 14.6562 4.5H10.3438C9.93969 4.5 9.57922 4.69125 9.31625 4.99781L8.06844 6.96937C7.80547 7.27641 7.46656 7.5 7.0625 7.5H4.25C3.85218 7.5 3.47064 7.65804 3.18934 7.93934C2.90804 8.22064 2.75 8.60218 2.75 9V18C2.75 18.3978 2.90804 18.7794 3.18934 19.0607C3.47064 19.342 3.85218 19.5 4.25 19.5H20.75C21.1478 19.5 21.5294 19.342 21.8107 19.0607C22.092 18.7794 22.25 18.3978 22.25 18V9C22.25 8.60218 22.092 8.22064 21.8107 7.93934C21.5294 7.65804 21.1478 7.5 20.75 7.5H17.9844C17.5789 7.5 17.1945 7.27641 16.9316 6.96937Z" stroke="white" stroke-linecap="round" stroke-linejoin="round"/>
<path d="M12.5 16.5C14.5711 16.5 16.25 14.8211 16.25 12.75C16.25 10.6789 14.5711 9 12.5 9C10.4289 9 8.75 10.6789 8.75 12.75C8.75 14.8211 10.4289 16.5 12.5 16.5Z" stroke="white" stroke-miterlimit="10"/>
<path d="M6.3125 7.40625V6.375H5.1875V7.40625" stroke="white" stroke-linecap="round" stroke-linejoin="round"/>
</svg>
