<svg width="20" height="20" viewBox="0 0 20 20" fill="none" xmlns="http://www.w3.org/2000/svg">
<path d="M15.4889 16.5L10.9389 11.95C10.5778 12.2389 10.1625 12.4676 9.69306 12.6361C9.22361 12.8046 8.72407 12.8889 8.19444 12.8889C6.88241 12.8889 5.77199 12.4345 4.86319 11.5257C3.9544 10.6169 3.5 9.50648 3.5 8.19444C3.5 6.88241 3.9544 5.77199 4.86319 4.86319C5.77199 3.9544 6.88241 3.5 8.19444 3.5C9.50648 3.5 10.6169 3.9544 11.5257 4.86319C12.4345 5.77199 12.8889 6.88241 12.8889 8.19444C12.8889 8.72407 12.8046 9.22361 12.6361 9.69306C12.4676 10.1625 12.2389 10.5778 11.95 10.9389L16.5 15.4889L15.4889 16.5ZM8.19444 11.4444C9.09722 11.4444 9.86458 11.1285 10.4965 10.4965C11.1285 9.86458 11.4444 9.09722 11.4444 8.19444C11.4444 7.29167 11.1285 6.52431 10.4965 5.89236C9.86458 5.26042 9.09722 4.94444 8.19444 4.94444C7.29167 4.94444 6.52431 5.26042 5.89236 5.89236C5.26042 6.52431 4.94444 7.29167 4.94444 8.19444C4.94444 9.09722 5.26042 9.86458 5.89236 10.4965C6.52431 11.1285 7.29167 11.4444 8.19444 11.4444Z" fill="#242526"/>
</svg>
