<svg width="15" height="15" viewBox="0 0 15 15" fill="none" xmlns="http://www.w3.org/2000/svg">
<path d="M1.95418 4.1847C1.89053 4.12456 1.81566 4.07754 1.73384 4.04633C1.65202 4.01512 1.56486 4.00033 1.47732 4.0028C1.38979 4.00528 1.3036 4.02497 1.22367 4.06076C1.14375 4.09654 1.07166 4.14772 1.01151 4.21137C0.951366 4.27502 0.904346 4.34989 0.873136 4.43171C0.841925 4.51352 0.827136 4.60069 0.829612 4.68822C0.832089 4.77576 0.851782 4.86195 0.887568 4.94187C0.923353 5.0218 0.974531 5.09389 1.03818 5.15403L7.03818 10.8207C7.16196 10.9377 7.32584 11.0029 7.49618 11.0029C7.66652 11.0029 7.8304 10.9377 7.95418 10.8207L13.9548 5.15403C14.0199 5.09429 14.0724 5.02221 14.1094 4.94199C14.1463 4.86177 14.1669 4.77501 14.1701 4.68675C14.1732 4.59849 14.1588 4.51048 14.1276 4.42784C14.0965 4.34521 14.0492 4.26958 13.9886 4.20537C13.9279 4.14116 13.8551 4.08963 13.7744 4.05379C13.6937 4.01794 13.6067 3.99849 13.5184 3.99657C13.4301 3.99465 13.3423 4.01029 13.2601 4.04258C13.1779 4.07488 13.1029 4.12319 13.0395 4.1847L7.49618 9.41937L1.95418 4.1847Z" fill="#F6F5F9"/>
</svg>
